# xmcd
#
# Track frame offsets: 
#        150
#        8040
#        27562
#        44850
#        85025
#        95682
#        126722
#        153737
#        168912
#        192570
#        214142
#        239100
#        267442
#        279357
#        311320
#        342117
#
# Disc length: 4795 seconds
#
# Revision: 2
# Processed by: cddbd v1.5.2PL0 Copyright (c) Steve Scherf et al.
# Submitted via: ExactAudioCopyFreeDBPlugin 1.0
#
DISCID=f212b910
DTITLE=TSUTCHIE - THANKS FOR LISTENING
DYEAR=2003
DGENRE=ヒップ ホップ (一般)
TTITLE0=LIFE TO LIGHT (INTRO 1)
TTITLE1=SLUCKEE STEEL (feat. 石井マサユキ)
TTITLE2=40's (feat. SDP&ロボ宙)
TTITLE3=UNCHAIN (feat. キタキマユ)
TTITLE4=BREAKFAST (INTRO 2)
TTITLE5=CAFFEINE NO JOUOU (feat. 曽我部恵一)
TTITLE6=PUTTY (feat. Lori Fine)
TTITLE7=I'M READT
TTITLE8=DOWN BELOW (feat. FU-TEN)
TTITLE9=DIAL Q-EST (feat. ECD)
TTITLE10=? (feat. DABO)
TTITLE11=TWO TEARS (feat. 真城めぐみ)
TTITLE12=TIPS
TTITLE13=LAZZ (feat. 渡辺俊美)
TTITLE14=UNTITLE (Angnes Speaks)
TTITLE15=(fuck)
EXTD=YEAR: 2003
EXTT0=
EXTT1=
EXTT2=
EXTT3=
EXTT4=
EXTT5=
EXTT6=
EXTT7=
EXTT8=
EXTT9=
EXTT10=
EXTT11=
EXTT12=
EXTT13=
EXTT14=
EXTT15=
PLAYORDER=
